<?xml version="1.0" encoding="UTF-8"?>
<svg width="123px" height="49px" viewBox="0 0 123 49" version="1.1" xmlns="http://www.w3.org/2000/svg" xmlns:xlink="http://www.w3.org/1999/xlink">
    <!-- Generator: Sketch 64 (93537) - https://sketch.com -->
    <title>logo</title>
    <desc>Created with Sketch.</desc>
    <defs>
        <rect id="path-1" x="0" y="0" width="1440" height="650"></rect>
    </defs>
    <g id="Page-1" stroke="none" stroke-width="1" fill="none" fill-rule="evenodd">
        <g id="c19-index-03" transform="translate(-192.000000, -84.000000)">
            <g id="header" transform="translate(0.000000, 60.000000)">
                <g id="logo" transform="translate(192.000000, 24.000000)">
                    <path d="M122.062,14.7787 L62.034,14.7787 C62.356,13.8747 62.311,9.9347 62.311,9.9347 L122.062,9.9347 L122.062,14.7787 Z" id="Fill-1-Copy" fill="#1C75BB"></path>
                    <path d="M122.062,5.0902 L61.435,5.0902 C61.435,5.0902 60.743,2.6152 58.623,0.2462 L122.062,0.2462 L122.062,5.0902 Z" id="Fill-3-Copy" fill="#1C75BB"></path>
                    <path d="M122.062,24.4662 L57.885,24.4662 C57.885,24.4662 59.913,22.3742 60.835,19.6222 L122.062,19.6222 L122.062,24.4662 Z" id="Fill-5-Copy" fill="#1C75BB"></path>
                    <path d="M1.0658141e-14,12.4437 L1.0658141e-14,12.3757 C1.0658141e-14,5.4397 5.304,0.0007 12.511,0.0007 C17.373,0.0007 20.5,2.0407 22.608,4.9297 L17.645,8.7717 C16.285,7.1057 14.721,5.9837 12.443,5.9837 C9.111,5.9837 6.766,8.8397 6.766,12.3067 L6.766,12.3757 C6.766,15.9447 9.111,18.7327 12.443,18.7327 C14.925,18.7327 16.387,17.5767 17.814,15.8427 L22.778,19.3787 C20.534,22.4717 17.508,24.7507 12.273,24.7507 C5.474,24.7507 1.0658141e-14,19.5477 1.0658141e-14,12.4437" id="Fill-187-Copy" fill="#EC1D24"></path>
                    <polygon id="Fill-188-Copy" fill="#EC1D24" points="28.7294 6.4261 24.7174 7.3771 23.4594 2.2791 30.4294 0.3061 35.2224 0.3061 35.2224 24.2741 28.7294 24.2741"></polygon>
                    <path d="M51.7802,8.432 L51.7802,8.364 C51.7802,6.528 50.4542,5.1 48.3812,5.1 C46.3072,5.1 45.0492,6.494 45.0492,8.329 L45.0492,8.398 C45.0492,10.2 46.3752,11.526 48.4482,11.526 C50.5222,11.526 51.7802,10.165 51.7802,8.432 M51.7122,14.313 C50.2502,15.673 48.5162,16.251 46.6472,16.251 C42.0572,16.251 38.6572,13.361 38.6572,8.703 L38.6572,8.636 C38.6572,3.4 42.7032,0 48.1422,0 C51.6102,0 53.6502,0.953 55.4522,2.754 C57.1862,4.488 58.3072,7.207 58.3072,11.593 L58.3072,11.661 C58.3072,19.412 54.4322,24.75 47.3262,24.75 C43.7572,24.75 41.2072,23.628 38.9972,21.928 L42.0912,17.372 C43.7572,18.664 45.3212,19.277 47.1912,19.277 C50.6582,19.277 51.5422,16.217 51.7122,14.313" id="Fill-189-Copy" fill="#EC1D24"></path>
                    <path d="M0.0292,40.4154 L0.0292,40.3724 C0.0292,36.0364 3.3452,32.6354 7.8512,32.6354 C10.8902,32.6354 12.8462,33.9104 14.1642,35.7174 L11.0602,38.1194 C10.2102,37.0774 9.2332,36.3764 7.8082,36.3764 C5.7252,36.3764 4.2582,38.1614 4.2582,40.3304 L4.2582,40.3724 C4.2582,42.6034 5.7252,44.3474 7.8082,44.3474 C9.3602,44.3474 10.2742,43.6244 11.1672,42.5404 L14.2702,44.7514 C12.8672,46.6854 10.9752,48.1094 7.7022,48.1094 C3.4512,48.1094 0.0292,44.8574 0.0292,40.4154" id="Fill-190-Copy" fill="#1C75BB"></path>
                    <path d="M26.935,40.4154 L26.935,40.3724 C26.935,38.2044 25.404,36.3544 23.13,36.3544 C20.856,36.3544 19.347,38.1834 19.347,40.3304 L19.347,40.3724 C19.347,42.5194 20.898,44.3904 23.173,44.3904 C25.426,44.3904 26.935,42.5614 26.935,40.4154 M15.138,40.4154 L15.138,40.3724 C15.138,36.1004 18.581,32.6354 23.173,32.6354 C27.764,32.6354 31.164,36.0584 31.164,40.3304 L31.164,40.3724 C31.164,44.6444 27.721,48.1094 23.13,48.1094 C18.539,48.1094 15.138,44.6864 15.138,40.4154" id="Fill-191-Copy" fill="#1C75BB"></path>
                    <path d="M41.0869,41.9242 L39.4289,37.7152 L37.7499,41.9242 L41.0869,41.9242 Z M37.4739,32.8262 L41.4479,32.8262 L47.7819,47.8122 L43.3609,47.8122 L42.2979,45.1342 L36.5379,45.1342 L35.4759,47.8122 L31.1609,47.8122 L37.4739,32.8262 Z" id="Fill-192-Copy" fill="#1C75BB"></path>
                    <polygon id="Fill-193-Copy" fill="#1C75BB" points="49.2231 32.933 53.3471 32.933 53.3471 44.199 60.5521 44.199 60.5521 47.812 49.2231 47.812"></polygon>
                    <polygon id="Fill-194-Copy" fill="#1C75BB" points="62.4408 47.8121 66.5648 47.8121 66.5648 32.9331 62.4408 32.9331"></polygon>
                    <polygon id="Fill-195-Copy" fill="#1C75BB" points="72.9174 36.5463 68.4754 36.5463 68.4754 32.9333 81.5044 32.9333 81.5044 36.5463 77.0414 36.5463 77.0414 47.8123 72.9174 47.8123"></polygon>
                    <polygon id="Fill-196-Copy" fill="#1C75BB" points="83.4138 47.8121 87.5378 47.8121 87.5378 32.9331 83.4138 32.9331"></polygon>
                    <path d="M101.5644,40.4154 L101.5644,40.3724 C101.5644,38.2044 100.0334,36.3544 97.7594,36.3544 C95.4854,36.3544 93.9764,38.1834 93.9764,40.3304 L93.9764,40.3724 C93.9764,42.5194 95.5274,44.3904 97.8024,44.3904 C100.0554,44.3904 101.5644,42.5614 101.5644,40.4154 M89.7674,40.4154 L89.7674,40.3724 C89.7674,36.1004 93.2104,32.6354 97.8024,32.6354 C102.3934,32.6354 105.7934,36.0584 105.7934,40.3304 L105.7934,40.3724 C105.7934,44.6444 102.3504,48.1094 97.7594,48.1094 C93.1684,48.1094 89.7674,44.6864 89.7674,40.4154" id="Fill-197-Copy" fill="#1C75BB"></path>
                    <polygon id="Fill-198-Copy" fill="#1C75BB" points="107.915 32.933 111.762 32.933 117.884 40.797 117.884 32.933 121.965 32.933 121.965 47.812 118.373 47.812 111.996 39.65 111.996 47.812 107.915 47.812"></polygon>
                </g>
            </g>
        </g>
    </g>
</svg>
