<?xml version="1.0" encoding="UTF-8"?> <svg xmlns="http://www.w3.org/2000/svg" xmlns:xlink="http://www.w3.org/1999/xlink" width="240px" height="70px" viewBox="0 0 240 70"> <!-- Generator: Sketch 51.2 (57519) - http://www.bohemiancoding.com/sketch --> <title>Logo / Tulip Dark</title> <desc>Created with Sketch.</desc> <defs></defs> <g id="Page-1" stroke="none" stroke-width="1" fill="none" fill-rule="evenodd"> <g id="Logo-/-Tulip-Dark" fill="#182339"> <g id="Logo---Mica-50-on-Carbon"> <path d="M104.03958,51.9452363 L104.03958,18.4004088 L114.908546,18.4004088 L115.791304,12.4417881 L85.722339,12.4417881 L85.722339,18.4004088 L96.922339,18.4004088 L96.922339,51.9452363 L104.03958,51.9452363 Z M137.805098,52.4417881 C146.687856,52.4417881 151.487856,48.4693743 151.487856,39.0900639 L151.487856,12.4417881 L144.370615,12.4417881 L144.370615,38.9797191 C144.370615,43.503857 143.432684,46.703857 137.363718,46.703857 L135.763718,46.703857 C129.694753,46.703857 128.701649,43.503857 128.701649,38.9797191 L128.701649,12.4417881 L121.584408,12.4417881 L121.584408,39.0900639 C121.584408,48.4693743 126.43958,52.4417881 135.322339,52.4417881 L137.805098,52.4417881 Z M186.963718,51.9452363 L186.963718,46.0417881 L168.536132,46.0417881 L168.536132,12.4417881 L161.418891,12.4417881 L161.418891,51.9452363 L186.963718,51.9452363 Z M201.749925,51.9452363 L201.749925,12.4417881 L194.632684,12.4417881 L194.632684,51.9452363 L201.749925,51.9452363 Z M219.349925,51.9452363 L219.349925,36.4417881 L227.23958,36.4417881 C236.011994,36.4417881 239.653373,33.4624777 239.653373,26.1797191 L239.653373,23.2004088 C239.653373,14.9245467 236.398201,12.4417881 226.908546,12.4417881 L212.232684,12.4417881 L212.232684,51.9452363 L219.349925,51.9452363 Z M232.48096,26.0693743 C232.48096,29.6004088 231.598201,30.6486846 226.522339,30.6486846 L219.349925,30.6486846 L219.349925,18.2348915 L226.522339,18.2348915 C231.708546,18.2348915 232.48096,19.4486846 232.48096,23.2004088 L232.48096,26.0693743 Z" id="TULIP-Copy-2" fill-rule="nonzero"></path> <polygon id="Shape-Copy-6" fill-rule="nonzero" points="59.1677512 17.3307328 59.1677512 43.3947482 33.1037358 69.4587636 33.1037358 43.3947482"></polygon> <polygon id="Shape-Copy-7" fill-rule="nonzero" points="26.4241863 43.3947482 26.4241863 69.4587636 0.3601709 43.3947482 0.3601709 17.3307328"></polygon> <polygon id="Shape-Copy-8" fill-rule="nonzero" points="48.2463434 19.0316078 29.7983917 37.4589011 11.3710984 19.0316078 29.8190501 0.5974284"></polygon> </g> </g> </g> </svg> 