<svg width="205" height="205" viewBox="0 0 205 205" fill="none" xmlns="http://www.w3.org/2000/svg">
<path d="M178.27 172.51V175.02C178.27 179.18 174.89 182.56 170.73 182.56H120.47C116.31 182.56 112.93 179.18 112.93 175.02V172.51C112.93 169.24 115.04 166.47 117.96 165.43V133.82C117.96 133.32 117.81 132.84 117.54 132.43L109.17 119.88C108.34 118.64 107.9 117.2 107.9 115.7V87.06C107.9 82.91 111.29 79.52 115.44 79.52C119.6 79.52 122.98 82.91 122.98 87.06V104.65C122.98 105.39 123.3 106.09 123.87 106.57C124.44 107.05 125.17 107.26 125.94 107.13C127.1 106.94 128.01 105.74 128.01 104.39V59.69C128.01 55.88 130.71 52.56 134.3 51.98C135.58 51.77 136.88 51.89 138.06 52.31V49.36C138.06 47.15 139.03 45.06 140.72 43.62C142.4 42.18 144.64 41.57 146.85 41.93C150.44 42.51 153.14 45.82 153.14 49.63V52.31C154.33 51.89 155.62 51.77 156.9 51.98C160.49 52.56 163.19 55.88 163.19 59.69V64.88C164.38 64.46 165.67 64.34 166.96 64.55C170.54 65.13 173.25 68.44 173.25 72.25V165.43C176.17 166.47 178.27 169.24 178.27 172.51ZM173.25 175.02V172.51C173.25 171.12 172.12 170 170.73 170H120.47C119.09 170 117.96 171.12 117.96 172.51V175.02C117.96 176.41 119.09 177.54 120.47 177.54H170.73C172.12 177.54 173.25 176.41 173.25 175.02ZM168.22 164.97V72.25C168.22 70.9 167.31 69.69 166.15 69.51C165.39 69.38 164.65 69.58 164.08 70.07C163.52 70.55 163.19 71.24 163.19 71.98V104.65C163.19 106.04 162.07 107.17 160.68 107.17C159.29 107.17 158.17 106.04 158.17 104.65V71.98V69.47V59.69C158.17 58.34 157.26 57.13 156.1 56.94C155.33 56.82 154.6 57.02 154.03 57.5C153.46 57.98 153.14 58.68 153.14 59.42V97.11C153.14 98.5 152.02 99.63 150.63 99.63C149.24 99.63 148.11 98.5 148.11 97.11V59.42V49.63C148.11 48.28 147.2 47.08 146.04 46.89C145.27 46.76 144.55 46.96 143.98 47.45C143.41 47.93 143.09 48.63 143.09 49.36V59.42V97.11C143.09 98.5 141.96 99.63 140.58 99.63C139.19 99.63 138.06 98.5 138.06 97.11V59.42C138.06 58.68 137.74 57.98 137.18 57.5C136.6 57.02 135.87 56.82 135.11 56.94C133.95 57.13 133.04 58.34 133.04 59.69V104.39C133.04 108.2 130.33 111.51 126.75 112.09C124.53 112.44 122.3 111.83 120.62 110.4C118.92 108.96 117.96 106.87 117.96 104.65V87.06C117.96 85.68 116.83 84.55 115.44 84.55C114.06 84.55 112.93 85.68 112.93 87.06V115.7C112.93 116.2 113.08 116.68 113.35 117.09L121.72 129.64C122.55 130.88 122.98 132.32 122.98 133.82V164.97H168.22Z" fill="#1c75bb"/>
<path d="M168.22 72.25V164.97H122.98V133.82C122.98 132.32 122.55 130.88 121.72 129.64L113.35 117.09C113.08 116.68 112.93 116.2 112.93 115.7V87.06C112.93 85.68 114.06 84.55 115.44 84.55C116.83 84.55 117.96 85.68 117.96 87.06V104.65C117.96 106.87 118.92 108.96 120.62 110.4C122.3 111.83 124.53 112.44 126.75 112.09C130.33 111.51 133.04 108.2 133.04 104.39V59.69C133.04 58.34 133.95 57.13 135.11 56.94C135.87 56.82 136.6 57.02 137.18 57.5C137.74 57.98 138.06 58.68 138.06 59.42V97.11C138.06 98.5 139.19 99.63 140.58 99.63C141.96 99.63 143.09 98.5 143.09 97.11V59.42V49.36C143.09 48.63 143.41 47.93 143.98 47.45C144.55 46.96 145.27 46.76 146.04 46.89C147.2 47.08 148.11 48.28 148.11 49.63V59.42V97.11C148.11 98.5 149.24 99.63 150.63 99.63C152.02 99.63 153.14 98.5 153.14 97.11V59.42C153.14 58.68 153.46 57.98 154.03 57.5C154.6 57.02 155.33 56.82 156.1 56.94C157.26 57.13 158.17 58.34 158.17 59.69V69.47V71.98V104.65C158.17 106.04 159.29 107.17 160.68 107.17C162.07 107.17 163.19 106.04 163.19 104.65V71.98C163.19 71.24 163.52 70.55 164.08 70.07C164.65 69.58 165.39 69.38 166.15 69.51C167.31 69.69 168.22 70.9 168.22 72.25Z" fill="#bfd9ed"/>
<path d="M97.85 66.96V95.59C97.85 97.09 97.41 98.53 96.58 99.78L88.22 112.32C87.94 112.74 87.8 113.22 87.8 113.72V145.33C90.72 146.37 92.83 149.13 92.83 152.4V154.92C92.83 159.07 89.44 162.46 85.29 162.46H35.02C30.87 162.46 27.48 159.07 27.48 154.92V152.4C27.48 149.13 29.59 146.37 32.51 145.33V52.15C32.51 48.33 35.21 45.02 38.8 44.44C40.09 44.24 41.38 44.35 42.56 44.77V39.58C42.56 35.77 45.27 32.46 48.85 31.88C50.14 31.67 51.43 31.79 52.61 32.2V29.53C52.61 25.72 55.32 22.41 58.91 21.82C61.12 21.46 63.35 22.08 65.04 23.51C66.73 24.95 67.6899 27.05 67.6899 29.26V32.2C68.8799 31.79 70.17 31.67 71.46 31.88C75.04 32.46 77.75 35.77 77.75 39.58V84.28C77.75 85.63 78.6599 86.84 79.8199 87.03C80.5799 87.14 81.31 86.95 81.89 86.46C82.45 85.99 82.77 85.29 82.77 84.55V66.96C82.77 62.8 86.1601 59.42 90.3101 59.42C94.4701 59.42 97.85 62.8 97.85 66.96ZM92.83 95.59V66.96C92.83 65.57 91.7001 64.44 90.3101 64.44C88.9301 64.44 87.8 65.57 87.8 66.96V84.55C87.8 86.76 86.83 88.86 85.14 90.29C83.46 91.73 81.22 92.35 79.01 91.99C75.42 91.4 72.72 88.09 72.72 84.28V39.58C72.72 38.23 71.81 37.03 70.65 36.83C69.89 36.71 69.15 36.91 68.58 37.4C68.02 37.87 67.6899 38.57 67.6899 39.31V77.01C67.6899 78.4 66.5701 79.52 65.1801 79.52C63.7901 79.52 62.67 78.4 62.67 77.01V39.31V29.26C62.67 28.52 62.35 27.82 61.78 27.34C61.21 26.86 60.47 26.66 59.71 26.78C58.55 26.97 57.64 28.18 57.64 29.53V39.31V77.01C57.64 78.4 56.52 79.52 55.13 79.52C53.74 79.52 52.61 78.4 52.61 77.01V39.31C52.61 38.57 52.29 37.87 51.73 37.4C51.16 36.91 50.42 36.71 49.66 36.83C48.5 37.03 47.59 38.23 47.59 39.58V49.36V51.88V84.55C47.59 85.94 46.46 87.06 45.08 87.06C43.69 87.06 42.56 85.94 42.56 84.55V51.88C42.56 51.14 42.24 50.44 41.68 49.96C41.1 49.48 40.37 49.28 39.61 49.4C38.45 49.59 37.54 50.79 37.54 52.15V144.86H82.77V113.72C82.77 112.22 83.21 110.77 84.04 109.53L92.4 96.99C92.68 96.57 92.83 96.09 92.83 95.59ZM87.8 154.92V152.4C87.8 151.02 86.67 149.89 85.29 149.89H35.02C33.64 149.89 32.51 151.02 32.51 152.4V154.92C32.51 156.3 33.64 157.43 35.02 157.43H85.29C86.67 157.43 87.8 156.3 87.8 154.92Z" fill="#1c75bb"/>
<path d="M92.83 66.9599V95.5899C92.83 96.0899 92.6801 96.5699 92.4001 96.9899L84.0401 109.53C83.2101 110.77 82.7701 112.22 82.7701 113.72V144.86H37.54V52.1499C37.54 50.7899 38.45 49.5899 39.61 49.3999C40.37 49.2799 41.1001 49.4799 41.6801 49.9599C42.2401 50.4399 42.5601 51.1399 42.5601 51.8799V84.5499C42.5601 85.9399 43.6901 87.0599 45.0801 87.0599C46.4601 87.0599 47.5901 85.9399 47.5901 84.5499V51.8799V49.3599V39.5799C47.5901 38.2299 48.5 37.0299 49.66 36.8299C50.42 36.7099 51.16 36.9099 51.73 37.3999C52.29 37.8699 52.61 38.5699 52.61 39.3099V77.0099C52.61 78.3999 53.7401 79.5199 55.1301 79.5199C56.5201 79.5199 57.6401 78.3999 57.6401 77.0099V39.3099V29.5299C57.6401 28.1799 58.55 26.9699 59.71 26.7799C60.47 26.6599 61.2101 26.8599 61.7801 27.3399C62.3501 27.8199 62.6701 28.5199 62.6701 29.2599V39.3099V77.0099C62.6701 78.3999 63.7901 79.5199 65.1801 79.5199C66.5701 79.5199 67.69 78.3999 67.69 77.0099V39.3099C67.69 38.5699 68.02 37.8699 68.58 37.3999C69.15 36.9099 69.8901 36.7099 70.6501 36.8299C71.8101 37.0299 72.72 38.2299 72.72 39.5799V84.2799C72.72 88.0899 75.4201 91.3999 79.0101 91.9899C81.2201 92.3499 83.4601 91.7299 85.1401 90.2899C86.8301 88.8599 87.8001 86.7599 87.8001 84.5499V66.9599C87.8001 65.5699 88.9301 64.4399 90.3101 64.4399C91.7001 64.4399 92.83 65.5699 92.83 66.9599Z" fill="#bfd9ed"/>
</svg>
