<svg width="205" height="205" viewBox="0 0 205 205" fill="none" xmlns="http://www.w3.org/2000/svg">
<path d="M187.09 88.8599V110.1C187.09 120.34 178.76 128.68 168.51 128.68H149.65C139.83 144.56 122.24 155.22 102.15 155.22C82.0499 155.22 64.46 144.57 54.65 128.68H35.79C25.54 128.68 17.2 120.34 17.2 110.1V88.8599C17.2 78.6199 25.54 70.2799 35.79 70.2799H48.19C51.17 64.0199 57.56 59.6599 64.98 59.6599H79.26C79.8 59.6599 80.32 59.4999 80.76 59.1899L89.49 53.1999C96.9 47.6699 107.38 47.6699 114.87 53.2499L123.52 59.1899C123.97 59.4899 124.48 59.6599 125.02 59.6599H139.3C146.72 59.6599 153.12 64.0099 156.09 70.2699H168.49C178.76 70.2699 187.09 78.6099 187.09 88.8599ZM181.79 110.09V88.8599C181.79 81.5399 175.84 75.5799 168.51 75.5799H157.7C157.81 76.4199 157.89 77.2699 157.89 78.1299V99.8199C157.89 108.24 155.94 116.21 152.54 123.36H168.51C175.83 123.37 181.79 117.41 181.79 110.09ZM152.59 99.8199V78.1299C152.59 77.2599 152.49 76.4099 152.32 75.5799H144.62C143.15 75.5799 141.97 74.3999 141.97 72.9299C141.97 71.4599 143.15 70.2699 144.62 70.2699H149.89C147.47 67.0699 143.64 64.9699 139.31 64.9699H125.03C123.41 64.9699 121.86 64.4799 120.52 63.5699L111.78 57.5699C106.07 53.3199 98.21 53.3199 92.57 57.5099L83.7599 63.5599C82.4299 64.4799 80.86 64.9599 79.25 64.9599H64.97C60.63 64.9599 56.81 67.0599 54.3899 70.2599H59.66C61.13 70.2599 62.3099 71.4499 62.3099 72.9199C62.3099 74.3899 61.13 75.5699 59.66 75.5699H51.9599C51.79 76.3999 51.69 77.2499 51.69 78.1199V99.8099C51.69 108.32 53.8499 116.33 57.6399 123.35H62.3099C63.7799 123.35 64.97 124.53 64.97 126C64.97 127.47 63.7799 128.65 62.3099 128.65H60.97C70.11 141.48 85.14 149.89 102.13 149.89C119.12 149.89 134.14 141.48 143.28 128.65H141.95C140.48 128.65 139.29 127.47 139.29 126C139.29 124.53 140.48 123.35 141.95 123.35H146.62C150.42 116.34 152.59 108.33 152.59 99.8199ZM35.79 123.37H51.76C48.36 116.21 46.4 108.25 46.4 99.8299V78.1399C46.4 77.2699 46.4899 76.4299 46.5999 75.5899H35.79C28.47 75.5899 22.51 81.5399 22.51 88.8699V110.1C22.51 117.41 28.47 123.37 35.79 123.37Z" fill="#1c75bb"/>
<path d="M152.59 78.1298V99.8198C152.59 108.33 150.43 116.34 146.64 123.36H141.97C140.5 123.36 139.31 124.54 139.31 126.01C139.31 127.48 140.5 128.66 141.97 128.66H143.3C134.16 141.49 119.14 149.9 102.15 149.9C85.16 149.9 70.13 141.49 60.99 128.66H62.33C63.8 128.66 64.99 127.48 64.99 126.01C64.99 124.54 63.8 123.36 62.33 123.36H57.66C53.88 116.34 51.71 108.32 51.71 99.8198V78.1298C51.71 77.2598 51.81 76.4098 51.98 75.5798H59.68C61.15 75.5798 62.33 74.3998 62.33 72.9298C62.33 71.4598 61.15 70.2698 59.68 70.2698H54.41C56.83 67.0698 60.66 64.9698 64.99 64.9698H79.27C80.88 64.9698 82.44 64.4798 83.78 63.5698L92.59 57.5198C98.23 53.3298 106.09 53.3298 111.8 57.5798L120.54 63.5798C121.87 64.4898 123.43 64.9798 125.05 64.9798H139.33C143.67 64.9798 147.49 67.0798 149.91 70.2798H144.64C143.17 70.2798 141.99 71.4698 141.99 72.9398C141.99 74.4098 143.17 75.5898 144.64 75.5898H152.34C152.49 76.4098 152.59 77.2598 152.59 78.1298ZM131.33 72.9298C131.33 71.4598 130.14 70.2698 128.67 70.2698C123.55 70.2698 118.48 68.5898 114.38 65.5298L108.54 61.1698C104.83 58.3998 99.47 58.3998 95.77 61.1698L89.94 65.5098C85.83 68.5798 80.74 70.2598 75.61 70.2598C74.15 70.2598 72.96 71.4498 72.96 72.9198C72.96 74.3898 74.15 75.5698 75.61 75.5698C81.87 75.5698 88.09 73.5098 93.11 69.7698L98.93 65.4198C100.79 64.0398 103.51 64.0398 105.37 65.4298L111.21 69.7798C116.22 73.5198 122.42 75.5798 128.68 75.5798C130.14 75.5798 131.33 74.3998 131.33 72.9298ZM123.39 128.67V107.44C123.39 105.97 122.2 104.78 120.73 104.78H83.57C82.1 104.78 80.91 105.97 80.91 107.44V128.67C80.91 130.15 82.1 131.33 83.57 131.33H120.73C122.2 131.33 123.39 130.14 123.39 128.67Z" fill="#bfd9ed"/>
<path d="M128.67 70.2698C130.14 70.2698 131.33 71.4598 131.33 72.9298C131.33 74.3998 130.14 75.5798 128.67 75.5798C122.42 75.5798 116.21 73.5198 111.2 69.7798L105.36 65.4298C103.5 64.0398 100.78 64.0398 98.92 65.4198L93.1 69.7698C88.08 73.5198 81.86 75.5698 75.6 75.5698C74.14 75.5698 72.95 74.3898 72.95 72.9198C72.95 71.4498 74.14 70.2598 75.6 70.2598C80.73 70.2598 85.8199 68.5698 89.9299 65.5098L95.7599 61.1698C99.4599 58.3998 104.82 58.3998 108.53 61.1698L114.37 65.5298C118.49 68.5898 123.56 70.2698 128.67 70.2698Z" fill="#1c75bb"/>
<path d="M123.39 107.44V128.67C123.39 130.15 122.2 131.33 120.73 131.33H83.5699C82.0999 131.33 80.9099 130.15 80.9099 128.67V107.44C80.9099 105.97 82.0999 104.78 83.5699 104.78H120.73C122.2 104.78 123.39 105.97 123.39 107.44ZM118.08 126.02V110.09H86.2199V126.02H118.08Z" fill="#1c75bb"/>
<path d="M110.11 115.4C111.58 115.4 112.77 116.59 112.77 118.06C112.77 119.53 111.58 120.71 110.11 120.71H94.19C92.72 120.71 91.53 119.53 91.53 118.06C91.53 116.59 92.72 115.4 94.19 115.4H110.11Z" fill="#1c75bb"/>
</svg>
