<?xml version="1.0" encoding="utf-8"?>
<!-- Generator: Adobe Illustrator 24.1.0, SVG Export Plug-In . SVG Version: 6.00 Build 0)  -->
<svg version="1.1" id="Layer_1" xmlns="http://www.w3.org/2000/svg" xmlns:xlink="http://www.w3.org/1999/xlink" x="0px" y="0px"
	 viewBox="0 0 524 138" style="enable-background:new 0 0 524 138;" xml:space="preserve">
<style type="text/css">
	.st0{fill:#0A2240;}
	.st1{fill:#FFFFFF;}
	.st2{fill:#FEFEFE;}
	.st3{fill:none;stroke:#000000;stroke-miterlimit:10;}
	.st4{fill:none;stroke:#000000;stroke-width:3;stroke-miterlimit:10;}
	.st5{fill:none;stroke:#000000;stroke-width:2;stroke-miterlimit:10;}
	.st6{fill:none;stroke:#000000;stroke-width:0.75;stroke-miterlimit:10;}
	.st7{fill:none;stroke:#FFFFFF;stroke-miterlimit:10;}
	.st8{fill:none;stroke:#EDC624;stroke-miterlimit:10;}
	.st9{fill:#EDC624;stroke:#EDC624;stroke-width:0.75;stroke-miterlimit:10;}
</style>
<g>
	<path class="st1" d="M29.9,101.8v6.5c0,3,0.3,3.8,5.2,3.8v1.6H17.9v-1.6c4.3,0,4.3-1.4,4.3-3.8V87.7c0-2.5,0-3.8-4.3-3.8v-1.6H33
		c6.9,0,12.5,3.2,12.6,9.5c0.1,5.5-4.9,10-14.5,10H29.9z M29.9,100h1.2c3.4,0,6.3-2.6,6.3-8.2c0-5.2-2.9-7.4-6.3-7.4h-1.2V100z"/>
	<path class="st1" d="M68.3,101.8v6.5c0,3,0.3,3.8,5.2,3.8v1.6H56.4v-1.6c4.3,0,4.3-1.4,4.3-3.8V87.7c0-2.5,0-3.8-4.3-3.8v-1.6h15.1
		c6.9,0,12.5,3.2,12.6,9.5c0.1,5.5-4.9,10-14.5,10H68.3z M68.3,100h1.2c3.4,0,6.3-2.6,6.3-8.2c0-5.2-2.9-7.4-6.3-7.4h-1.2V100z"/>
	<path class="st1" d="M94.8,112.1c4.3,0,4.3-1.3,4.3-3.8V87.7c0-2.9-0.4-3.8-4.3-3.8v-1.6h25.5l0.3,7.2H119c-0.9-5-2.4-5.2-5.7-5.2
		h-6.5v11.9h6.3c2.1,0,2.4-2.2,2.4-4.2h1.6v10.6h-1.6c0-2.3-0.3-4.4-2.4-4.4h-6.3v9.8c0,1.7,0,3.6,2.9,3.6h5.4c4,0,4.7-1.8,5.5-5.9
		h1.6l-0.5,7.9H94.8V112.1z"/>
	<path class="st1" d="M171.6,81.9c4.2,0,9.2,1.1,12.5,3l0.1,8.3h-1.6c0-6.5-4.5-9.2-10.6-9.2c-6.4,0-9.8,6.1-9.8,14.1
		s3.4,14.1,9.8,14.1c6.1,0,10.6-2.8,10.6-9.2h1.6l-0.1,8.3c-3.2,1.9-8.2,3-12.5,3c-7.2,0-17.6-3.3-17.6-16.1S164.5,81.9,171.6,81.9z
		"/>
	<path class="st1" d="M195.6,98c0-12.9,10.4-16.1,17.6-16.1c7.2,0,17.6,3.3,17.6,16.1s-10.4,16.1-17.6,16.1
		C206,114.1,195.6,110.9,195.6,98z M222.6,98c0-8-3.4-14.1-9.4-14.1s-9.4,6.1-9.4,14.1s3.4,14.1,9.4,14.1S222.6,106,222.6,98z"/>
	<path class="st1" d="M258.2,105.7H247l-1.1,2.7c-1,2.5-0.7,3.6,3.3,3.6v1.6h-10.8v-1.6c3.2,0,3.8-1.1,4.9-4l10.5-26.3h3.1
		l10.5,26.3c1.1,2.9,1.6,4,5.1,4v1.6H257v-1.6c3.3,0,3.2-1.1,2.2-3.8L258.2,105.7z M247.8,103.8h9.7L252.8,91L247.8,103.8z"/>
	<path class="st1" d="M300.5,83.9c-5.3,0-5.6,0.9-5.6,3.8v20.4c0,1.7,0,3.6,2.9,3.6h5.4c4,0,4.7-1.8,5.5-5.9h1.6l-0.5,7.9h-26.8
		v-1.6c4.3,0,4.3-1.3,4.3-3.8V87.7c0-2.9-0.4-3.8-4.3-3.8v-1.6h17.6V83.9z"/>
	<path class="st1" d="M320.9,113.7v-1.6c4.1,0,4.3-1.1,4.3-3.8V87.7c0-2.7-0.2-3.8-4.3-3.8v-1.6h16.3v1.6c-4.1,0-4.3,1.1-4.3,3.8
		v20.6c0,2.7,0.2,3.8,4.3,3.8v1.6H320.9z"/>
	<path class="st1" d="M378.9,82.3l0.3,7.2h-1.6c-0.9-5-2.4-5.2-5.7-5.2h-4.3v24c0,2.6,0.1,3.8,5.2,3.8v1.6h-18.1v-1.6
		c5.1,0,5.2-1.3,5.2-3.8v-24h-4.3c-3.4,0-4.9,0.2-5.7,5.2h-1.6l0.3-7.2H378.9z"/>
	<path class="st1" d="M390.4,113.7v-1.6c4.1,0,4.3-1.1,4.3-3.8V87.7c0-2.7-0.2-3.8-4.3-3.8v-1.6h16.3v1.6c-4.1,0-4.3,1.1-4.3,3.8
		v20.6c0,2.7,0.2,3.8,4.3,3.8v1.6H390.4z"/>
	<path class="st1" d="M418.3,98c0-12.9,10.4-16.1,17.6-16.1c7.2,0,17.6,3.3,17.6,16.1s-10.4,16.1-17.6,16.1
		C428.7,114.1,418.3,110.9,418.3,98z M445.3,98c0-8-3.4-14.1-9.4-14.1c-6,0-9.4,6.1-9.4,14.1s3.4,14.1,9.4,14.1
		C442,112.1,445.3,106,445.3,98z"/>
	<path class="st1" d="M494.2,87.7c0-2.7-0.2-3.8-3.9-3.8v-1.6H501v1.6c-4.1,0-4.3,1-4.3,3.8v26.2h-2.6l-22.2-25.4v19.8
		c0,2.8,0.1,3.8,3.9,3.8v1.6h-10.6v-1.6c4.1,0,4.3-1,4.3-3.8V87.7c0-2.5-0.2-3.8-4.3-3.8v-1.6h11.7l17.3,20.2V87.7z"/>
</g>
<g>
	<path class="st1" d="M47,28.9c0-2.7-0.2-3.8-3.9-3.8v-1.6h10.6V25c-4.1,0-4.3,1-4.3,3.8v26.2h-2.6L24.7,29.7v19.8
		c0,2.8,0.1,3.8,3.9,3.8v1.6H17.9v-1.6c4.1,0,4.3-1,4.3-3.8V28.9c0-2.5-0.2-3.8-4.3-3.8v-1.6h11.7L47,43.7V28.9z"/>
	<path class="st1" d="M83.4,46.9H72.2l-1.1,2.7c-1,2.5-0.7,3.6,3.3,3.6v1.6H63.6v-1.6c3.2,0,3.8-1.1,4.9-4L79.1,23h3.1l10.5,26.2
		c1.1,2.9,1.6,4,5.1,4v1.6H82.2v-1.6c3.3,0,3.2-1.1,2.2-3.8L83.4,46.9z M73,45h9.7L78,32.2L73,45z"/>
	<path class="st1" d="M134.5,23.5l0.3,7.2h-1.6c-0.9-5-2.4-5.2-5.7-5.2h-4.3v24c0,2.6,0.1,3.8,5.2,3.8v1.6h-18.1v-1.6
		c5.1,0,5.2-1.3,5.2-3.8v-24h-4.3c-3.4,0-4.9,0.2-5.7,5.2H104l0.3-7.2H134.5z"/>
	<path class="st1" d="M146,54.8v-1.6c4.1,0,4.3-1.1,4.3-3.8V28.9c0-2.7-0.2-3.8-4.3-3.8v-1.6h16.3V25c-4.1,0-4.3,1.1-4.3,3.8v20.6
		c0,2.7,0.2,3.8,4.3,3.8v1.6H146z"/>
	<path class="st1" d="M173.9,39.2c0-12.9,10.4-16.1,17.6-16.1c7.2,0,17.6,3.3,17.6,16.1c0,12.9-10.4,16.1-17.6,16.1
		C184.3,55.3,173.9,52,173.9,39.2z M200.9,39.2c0-8-3.4-14.1-9.4-14.1c-6,0-9.4,6.1-9.4,14.1c0,8,3.4,14.1,9.4,14.1
		C197.6,53.3,200.9,47.2,200.9,39.2z"/>
	<path class="st1" d="M249.8,28.9c0-2.7-0.2-3.8-3.9-3.8v-1.6h10.6V25c-4.1,0-4.3,1-4.3,3.8v26.2h-2.6l-22.2-25.4v19.8
		c0,2.8,0.1,3.8,3.9,3.8v1.6h-10.6v-1.6c4.1,0,4.3-1,4.3-3.8V28.9c0-2.5-0.2-3.8-4.3-3.8v-1.6h11.7l17.3,20.2V28.9z"/>
	<path class="st1" d="M286.3,46.9h-11.2l-1.1,2.7c-1,2.5-0.7,3.6,3.3,3.6v1.6h-10.8v-1.6c3.2,0,3.8-1.1,4.9-4L281.9,23h3.1
		l10.5,26.2c1.1,2.9,1.6,4,5.1,4v1.6H285v-1.6c3.3,0,3.2-1.1,2.2-3.8L286.3,46.9z M275.8,45h9.7l-4.7-12.8L275.8,45z"/>
	<path class="st1" d="M328.5,25c-5.3,0-5.6,0.9-5.6,3.8v20.4c0,1.7,0,3.6,2.9,3.6h5.4c4,0,4.7-1.8,5.5-5.9h1.6l-0.5,7.9h-26.8v-1.6
		c4.3,0,4.3-1.3,4.3-3.8V28.9c0-2.9-0.4-3.8-4.3-3.8v-1.6h17.6V25z"/>
</g>
<g>
	<g>
		<rect x="356.9" y="21.2" class="st9" width="143.1" height="1.5"/>
	</g>
</g>
<g>
	<g>
		<rect x="356.9" y="54.2" class="st9" width="143.1" height="1.5"/>
	</g>
</g>
<g>
	<g>
		<rect x="356.9" y="37" class="st9" width="143.1" height="1.5"/>
	</g>
</g>
</svg>
