<svg height="32px" viewBox="0 0 65 53" xmlns="http://www.w3.org/2000/svg"><path d="M28.83 5.82c-3.05 1.75-5.52 3.25-7.4 4.52-1.88 1.26-3.8 2.93-5.75 5-1.82 1.94-3.21 3.98-4.19 6.12-.97 2.14-1.66 4.89-2.05 8.25h4.68c4.03 0 7.19.99 9.5 2.97 2.3 1.98 3.46 4.89 3.46 8.72 0 2.73-1.02 5.28-3.07 7.65s-4.86 3.56-8.43 3.56c-5.59 0-9.58-1.83-11.98-5.49C1.2 43.46 0 38.64 0 32.68c0-4.21.91-8.05 2.73-11.52 1.82-3.47 4.03-6.56 6.62-9.29 2.66-2.79 5.49-5.15 8.48-7.1 2.99-1.95 5.49-3.53 7.5-4.77l3.5 5.82zm36.04 0c-3.05 1.75-5.52 3.25-7.4 4.52-1.88 1.26-3.8 2.93-5.75 5-1.88 2.01-3.3 4.06-4.24 6.17-.94 2.1-1.61 4.84-2 8.2h4.68c4.03 0 7.19.99 9.5 2.97 2.3 1.98 3.46 4.89 3.46 8.72 0 2.73-1.02 5.28-3.07 7.65s-4.86 3.56-8.43 3.56c-5.59 0-9.58-1.83-11.98-5.49-2.4-3.66-3.6-8.48-3.6-14.44 0-4.21.91-8.05 2.73-11.52 1.82-3.47 4.03-6.56 6.62-9.29 2.66-2.79 5.49-5.15 8.48-7.1 2.99-1.95 5.49-3.53 7.5-4.77l3.5 5.82z" fill="#1c75bb"/></svg>
